<?xml version="1.0" standalone="no"?>
<!DOCTYPE svg PUBLIC "-//W3C//DTD SVG 20010904//EN"
 "http://www.w3.org/TR/2001/REC-SVG-20010904/DTD/svg10.dtd">
<svg version="1.0" xmlns="http://www.w3.org/2000/svg"
 width="512.000000pt" height="512.000000pt" viewBox="0 0 512.000000 512.000000"
 preserveAspectRatio="xMidYMid meet">

<g transform="translate(0.000000,512.000000) scale(0.100000,-0.100000)"
fill="#000000" stroke="none">
<path d="M1950 3940 c0 -40 0 -40 39 -40 22 0 42 -4 45 -8 2 -4 2 -27 -1 -50
-6 -41 -6 -42 -45 -42 l-39 0 3 -42 3 -43 337 -3 336 -2 -33 -38 c-18 -20 -58
-66 -89 -102 l-56 -65 95 -3 95 -3 0 -43 0 -43 -155 -7 c-86 -4 -160 -4 -166
-1 -5 4 -70 3 -144 -1 l-135 -7 0 -33 0 -34 64 0 c91 0 101 -5 75 -39 -33 -41
-208 -247 -276 -325 l-63 -71 0 -111 0 -111 113 -6 c61 -4 343 -7 625 -7 l512
0 0 140 0 140 -350 0 c-192 0 -350 3 -350 8 1 4 21 30 46 57 77 85 184 212
184 218 0 3 -15 7 -32 9 -31 3 -33 5 -33 43 l0 40 122 3 122 3 62 77 c34 42
95 113 134 157 39 44 95 108 123 143 l52 63 0 110 0 109 -610 0 -610 0 0 -40z"/>
<path d="M1860 3275 c0 -34 1 -35 40 -35 39 0 40 1 40 35 0 34 -1 35 -40 35
-39 0 -40 -1 -40 -35z"/>
<path d="M516 2405 c-10 -36 -36 -99 -57 -140 -21 -41 -35 -75 -31 -75 4 1 28
30 55 65 l47 65 62 0 61 0 -7 -46 c-3 -26 -6 -60 -6 -75 l0 -29 -135 0 c-116
0 -135 -2 -135 -16 0 -10 6 -14 18 -10 9 3 67 6 127 7 l110 2 -3 -24 c-5 -45
-50 -127 -92 -168 -24 -23 -70 -57 -104 -77 -45 -26 -53 -34 -31 -29 50 10
175 87 214 131 21 24 47 71 60 108 l24 67 40 -6 c21 -4 77 -4 123 0 l83 7 -36
31 c-34 30 -36 30 -49 12 -8 -10 -14 -22 -14 -27 0 -4 -34 -8 -76 -8 -67 0
-75 2 -70 18 3 9 8 43 12 75 l6 57 112 0 111 1 -33 29 c-38 36 -42 36 -70 10
-20 -19 -33 -20 -158 -18 l-135 3 35 42 c43 49 44 60 10 73 -43 17 -49 12 -68
-55z"/>
<path d="M4464 2347 l7 -127 -167 0 c-92 0 -164 -3 -161 -6 4 -4 78 -6 165 -5
l159 2 7 -113 c9 -132 30 -266 53 -325 15 -42 15 -43 -9 -75 -61 -80 -156
-171 -231 -222 -86 -59 -93 -70 -24 -35 83 43 178 112 259 188 21 19 39 33 41
30 2 -2 24 -31 49 -64 62 -81 115 -131 160 -150 52 -21 59 -20 48 11 -6 14
-10 73 -10 132 l-1 107 -24 -69 c-14 -38 -27 -72 -30 -75 -8 -8 -95 79 -126
128 l-28 44 18 36 c10 20 37 93 61 164 26 79 50 133 62 141 18 13 16 14 -22
30 -22 9 -44 16 -49 16 -5 0 -15 -26 -21 -57 -14 -73 -59 -225 -70 -237 -16
-16 -40 119 -56 312 l-7 82 149 0 149 0 -38 38 c-34 33 -39 35 -48 20 -24 -42
-39 -48 -125 -48 l-84 0 0 83 c0 71 3 87 20 102 27 25 26 29 -17 44 -21 8 -44
16 -52 19 -12 5 -13 -15 -7 -121z"/>
<path d="M2896 2452 c-2 -4 -16 -39 -31 -77 -33 -89 -101 -216 -172 -323 -31
-45 -54 -85 -51 -87 13 -13 155 176 264 352 11 17 16 14 58 -27 26 -25 61 -66
78 -92 34 -54 44 -58 59 -24 19 41 -7 74 -97 125 -79 45 -81 47 -66 69 8 12
23 22 33 22 29 0 23 12 -20 43 -42 29 -47 31 -55 19z"/>
<path d="M3940 2291 l0 -161 -72 0 c-55 0 -69 -3 -60 -12 7 -7 36 -11 72 -9
l60 2 0 -190 0 -190 -57 -16 c-110 -30 -116 -36 -85 -75 l17 -21 150 75 c172
86 189 91 193 58 3 -16 8 -22 19 -18 8 3 19 6 24 6 5 0 9 16 9 35 l0 35 60 0
c53 0 60 -2 60 -20 0 -23 0 -23 36 -10 l27 11 -7 114 c-5 72 -4 115 2 115 24
0 18 29 -10 50 -27 20 -31 20 -47 6 -20 -18 -126 -23 -136 -6 -3 6 -13 10 -20
10 -12 0 -15 -28 -17 -142 l-3 -141 -69 -24 c-39 -12 -74 -23 -78 -23 -4 0 -8
81 -8 180 l0 180 75 0 c41 0 75 3 74 8 0 4 -15 19 -34 34 l-33 28 -16 -25
c-11 -16 -26 -25 -43 -25 l-26 0 7 122 c5 92 11 125 21 131 8 4 15 12 15 17 0
10 -40 33 -77 44 l-23 7 0 -160z m385 -351 l0 -105 -57 -3 -58 -3 0 94 c0 64
4 98 13 105 16 13 46 20 77 19 25 -2 25 -2 25 -107z"/>
<path d="M2308 2406 l-23 -36 -310 -2 -310 -3 389 -3 c214 -1 387 -1 385 1 -2
2 -27 20 -56 41 l-52 37 -23 -35z"/>
<path d="M3591 2410 l-22 -30 -246 0 c-135 0 -243 -3 -239 -7 4 -4 63 -6 132
-4 l125 3 -7 -39 c-20 -106 -28 -128 -53 -131 -13 -2 -42 6 -63 18 l-38 21 0
-270 c0 -158 4 -271 9 -271 40 0 41 4 41 239 0 163 3 230 12 239 8 8 57 12
155 12 l143 0 0 -235 c0 -248 0 -246 44 -229 14 5 16 34 16 220 0 207 1 214
21 225 21 11 20 11 -12 40 -40 34 -55 36 -64 9 -6 -18 -15 -20 -116 -20 l-110
0 43 83 43 82 137 5 c137 5 137 5 120 25 -37 45 -47 47 -71 15z"/>
<path d="M4638 2350 c40 -76 60 -85 77 -36 11 31 10 32 -76 84 l-38 23 37 -71z"/>
<path d="M990 2159 l0 -219 25 12 c18 8 25 19 25 40 l0 28 100 0 100 0 0 -34
c0 -34 0 -35 30 -24 17 5 32 13 34 16 2 4 0 77 -5 162 -7 147 -7 156 12 169
27 19 24 34 -10 54 -36 21 -57 22 -65 2 -4 -12 -25 -15 -100 -15 -52 0 -97 4
-100 9 -3 5 -15 11 -26 14 -20 5 -20 1 -20 -214z m248 26 l2 -151 -97 1 -98 1
-3 147 -3 146 78 4 c132 6 118 24 121 -148z"/>
<path d="M2406 2125 l-16 -25 -436 0 c-311 0 -435 -3 -432 -11 2 -7 58 -10
171 -10 l167 2 0 -71 c0 -143 -32 -272 -86 -352 -31 -44 -117 -113 -204 -162
-84 -48 -41 -37 77 20 184 88 249 193 274 446 l12 118 83 0 c45 0 85 -3 87 -7
2 -5 1 -118 -2 -253 -4 -135 -3 -255 1 -268 14 -41 64 -53 227 -53 82 0 159 5
172 10 36 13 65 49 54 65 -45 61 -48 70 -54 154 l-6 87 -7 -85 c-7 -95 -27
-154 -60 -171 -14 -7 -57 -10 -125 -7 -152 7 -143 -12 -143 285 l0 243 164 0
c90 0 172 3 180 6 13 5 8 12 -21 35 -47 35 -56 36 -77 4z"/>
<path d="M2861 2123 c14 -16 38 -49 53 -76 28 -50 41 -52 57 -10 12 32 -7 55
-73 89 -61 31 -67 30 -37 -3z"/>
<path d="M3356 2089 c-2 -8 -7 -88 -10 -179 -3 -91 -10 -182 -16 -204 -22 -76
-152 -176 -314 -242 -92 -38 -69 -42 31 -5 192 71 283 133 319 219 20 48 44
208 44 293 0 47 4 70 15 79 21 18 19 27 -9 34 -13 3 -31 9 -40 12 -9 3 -18 0
-20 -7z"/>
<path d="M735 2045 c28 -20 69 -56 93 -78 40 -39 43 -40 59 -24 16 16 16 20 3
45 -18 31 -108 80 -166 89 l-39 6 50 -38z"/>
<path d="M3021 1936 c-9 -10 -53 -16 -167 -21 -86 -4 -152 -11 -147 -14 4 -4
71 -4 148 -1 77 3 143 4 147 1 7 -6 -113 -220 -123 -221 -4 0 -35 21 -69 46
-66 49 -68 45 -9 -26 20 -25 52 -72 70 -105 54 -100 70 -110 89 -59 12 30 1
61 -35 97 -22 21 -26 32 -19 47 14 31 116 144 157 175 20 16 37 33 37 37 0 12
-47 58 -58 58 -5 0 -15 -6 -21 -14z"/>
<path d="M1115 1896 l-17 -26 -205 0 c-184 0 -208 2 -243 20 l-39 20 -5 -43
c-3 -23 -8 -133 -11 -244 -7 -218 -6 -222 43 -187 15 10 22 25 22 46 0 29 2
30 31 24 17 -3 119 -6 225 -6 l194 0 0 -40 c0 -42 5 -45 49 -33 l23 6 -7 198
c-7 177 -6 199 8 199 30 0 26 17 -12 54 l-39 38 -17 -26z m-5 -116 l0 -80
-225 0 -226 0 3 72 c3 72 3 73 33 79 17 4 117 7 223 8 l192 1 0 -80z m0 -175
l0 -85 -225 0 -225 0 0 85 0 85 225 0 225 0 0 -85z"/>
<path d="M4812 1720 c0 -14 2 -19 5 -12 2 6 2 18 0 25 -3 6 -5 1 -5 -13z"/>
<path d="M4370 1674 c-25 -8 -103 -26 -175 -40 -71 -15 -131 -27 -133 -29 -7
-6 23 -55 34 -55 6 0 50 17 96 38 45 21 112 49 148 61 61 20 107 42 85 40 -5
-1 -30 -7 -55 -15z"/>
<path d="M3476 1617 c32 -34 75 -86 94 -114 19 -29 40 -53 46 -53 18 0 34 23
34 50 0 36 -49 80 -149 134 l-84 46 59 -63z"/>
<path d="M1172 1140 c-2 -85 1 -111 9 -103 9 9 9 39 2 115 l-10 103 -1 -115z"/>
<path d="M1396 1218 c-4 -20 -6 -63 -4 -96 1 -33 0 -58 -3 -56 -4 2 -30 42
-60 89 -30 47 -59 85 -66 85 -10 0 -13 -27 -13 -107 0 -128 18 -131 22 -3 l3
85 43 -71 c23 -39 52 -81 65 -94 l22 -25 3 58 c2 31 2 83 0 115 -3 55 -4 56
-12 20z"/>
<path d="M2020 1146 l0 -103 57 -7 c34 -4 60 -3 67 4 7 7 -8 10 -47 10 l-57 0
0 100 c0 60 -4 100 -10 100 -6 0 -10 -41 -10 -104z"/>
<path d="M2323 1235 c-40 -17 -53 -42 -53 -98 0 -81 53 -120 129 -93 29 9 42
10 45 2 2 -6 5 13 5 42 l1 52 -40 0 c-22 0 -40 -5 -40 -10 0 -6 10 -8 23 -5
36 8 53 -9 39 -39 -12 -28 -64 -47 -97 -36 -46 16 -60 108 -24 154 26 33 77
36 104 6 20 -23 37 -27 29 -7 -6 16 -57 47 -76 47 -7 -1 -27 -7 -45 -15z"/>
<path d="M2857 1244 c-4 -4 -7 -46 -7 -93 l0 -86 -56 88 c-31 48 -62 87 -70
87 -11 0 -14 -22 -14 -105 0 -130 18 -141 22 -13 l3 93 55 -87 c30 -48 60 -89
66 -92 8 -3 14 28 19 96 6 92 0 130 -18 112z"/>
<path d="M1482 1233 l37 -4 3 -97 c4 -126 23 -125 23 1 l0 92 40 6 c26 4 8 6
-50 6 -49 0 -73 -2 -53 -4z"/>
<path d="M1657 1143 c-2 -54 -3 -101 0 -105 5 -10 90 -8 123 2 18 6 6 8 -43 9
l-68 1 3 43 3 42 57 0 c31 0 60 3 64 8 4 4 -23 7 -59 7 l-67 0 0 40 0 39 68 4
67 3 -71 2 -71 2 -6 -97z"/>
<path d="M1852 1145 c2 -52 7 -97 11 -101 13 -13 117 -17 117 -5 0 7 -21 11
-55 11 l-55 0 0 95 c0 63 -4 95 -11 95 -8 0 -10 -29 -7 -95z"/>
<path d="M2201 1143 c-1 -57 3 -103 8 -103 8 0 4 171 -4 195 -2 6 -4 -36 -4
-92z"/>
<path d="M2510 1141 l0 -99 69 -7 c39 -4 76 -3 83 2 8 5 -14 10 -57 13 l-70 5
0 39 0 40 58 -3 c35 -1 57 2 57 8 0 7 -24 11 -61 11 l-60 0 3 38 3 37 70 6 70
5 -82 2 -83 2 0 -99z"/>
<path d="M2945 1231 l40 -6 3 -98 c4 -126 22 -119 22 8 l0 94 38 4 c20 2 -3 4
-53 4 -58 0 -76 -2 -50 -6z"/>
<path d="M3200 1135 c0 -63 4 -105 10 -105 6 0 10 23 10 50 l0 50 49 0 c28 0
53 5 56 10 4 6 -15 10 -50 10 l-56 0 3 38 3 37 60 6 60 6 -72 1 -73 2 0 -105z"/>
<path d="M3390 1134 c0 -67 4 -103 10 -99 6 3 10 50 10 106 0 59 -4 99 -10 99
-6 0 -10 -42 -10 -106z"/>
<path d="M3470 1141 l0 -99 48 -6 c26 -4 61 -2 77 3 25 8 20 9 -37 10 l-68 1
0 39 c0 46 12 53 75 44 31 -4 45 -2 45 6 0 7 -22 11 -60 11 l-60 0 0 40 0 39
68 4 67 3 -77 2 -78 2 0 -99z"/>
<path d="M3672 1138 l-2 -108 59 0 c33 0 63 5 66 10 4 6 -15 10 -49 10 -54 0
-55 0 -61 33 -3 17 -6 61 -8 97 -2 41 -4 25 -5 -42z"/>
<path d="M3840 1134 l0 -105 58 6 c31 4 64 14 74 22 46 41 47 127 1 163 -19
14 -40 20 -79 20 l-54 0 0 -106z m121 77 c19 -15 23 -27 22 -72 -1 -64 -24
-89 -84 -89 l-39 0 0 90 0 90 39 0 c23 0 48 -8 62 -19z"/>
<path d="M480 1140 c0 -6 108 -10 305 -10 197 0 305 4 305 10 0 6 -108 10
-305 10 -197 0 -305 -4 -305 -10z"/>
<path d="M4090 1138 c0 -5 135 -8 300 -8 213 0 300 3 300 11 0 8 -85 10 -300
8 -165 -2 -300 -7 -300 -11z"/>
</g>
</svg>
